<?xml version="1.0" standalone="no"?><!DOCTYPE svg PUBLIC "-//W3C//DTD SVG 1.1//EN" "http://www.w3.org/Graphics/SVG/1.1/DTD/svg11.dtd"><svg t="1733217030308" class="icon" viewBox="0 0 1024 1024" version="1.1" xmlns="http://www.w3.org/2000/svg" p-id="6683" xmlns:xlink="http://www.w3.org/1999/xlink" width="200" height="200"><path d="M518.058667 721.92a32 32 0 0 1 0-64h97.706666a33.28 33.28 0 0 0 0-66.56h-97.706666a32.725333 32.725333 0 0 1-26.026667-13.226667 31.829333 31.829333 0 0 1-4.266667-29.013333l32.384-97.706667a31.616 31.616 0 0 1 30.336-21.76h130.56a32.213333 32.213333 0 0 1 32 32 32.213333 32.213333 0 0 1-32 32h-107.52l-11.093333 33.706667h53.333333a97.28 97.28 0 0 1 0 194.56zM375.082667 689.962667v-144.597334l-8.106667 9.386667a32.256 32.256 0 0 1-45.226667 2.56 32.213333 32.213333 0 0 1-2.133333-45.226667l64-71.253333a32.469333 32.469333 0 0 1 35.413333-8.533333 31.914667 31.914667 0 0 1 20.48 29.866666v228.266667a32.213333 32.213333 0 0 1-64.426666-0.426667z" p-id="6684" fill="#2c2c2c"></path><path d="M501.845333 148.906667l34.986667-43.52a31.488 31.488 0 0 0-5.12-44.8 31.872 31.872 0 0 0-44.8 5.12L402.858667 170.666667c-0.426667 0.426667-0.426667 0.853333-0.853334 1.706666a35.242667 35.242667 0 0 0-2.986666 5.546667 47.872 47.872 0 0 0-2.133334 5.546667 28.16 28.16 0 0 0-0.426666 5.973333v8.533333c0.426667 1.28 1.28 2.133333 1.706666 3.413334 0.853333 2.133333 1.706667 3.84 2.56 5.973333a22.357333 22.357333 0 0 0 4.266667 4.693333 10.282667 10.282667 0 0 0 2.56 3.413334c0.853333 0.426667 1.28 0.853333 2.133333 1.28a8.533333 8.533333 0 0 0 3.413334 1.706666 22.314667 22.314667 0 0 0 6.826666 2.56 8.533333 8.533333 0 0 0 4.266667 0.853334c1.28 0 2.133333 0.426667 3.413333 0.426666a6.186667 6.186667 0 0 0 2.986667-0.853333 11.605333 11.605333 0 0 0 3.84 0 337.322667 337.322667 0 0 1 77.226667-9.386667 347.306667 347.306667 0 1 1-347.306667 347.306667 343.68 343.68 0 0 1 70.4-207.36 32 32 0 1 0-51.2-38.4 405.76 405.76 0 0 0-83.2 245.76 411.306667 411.306667 0 1 0 411.733333-410.88c-3.413333 0-6.826667 0.426667-10.24 0.426667z" p-id="6685" fill="#2c2c2c"></path></svg>