<?xml version="1.0" standalone="no"?><!DOCTYPE svg PUBLIC "-//W3C//DTD SVG 1.1//EN" "http://www.w3.org/Graphics/SVG/1.1/DTD/svg11.dtd"><svg t="1733216989196" class="icon" viewBox="0 0 1024 1024" version="1.1" xmlns="http://www.w3.org/2000/svg" p-id="6400" xmlns:xlink="http://www.w3.org/1999/xlink" width="200" height="200"><path d="M518.058667 721.92a32 32 0 0 1 0-64h97.706666a33.28 33.28 0 0 0 0-66.56h-97.706666a32.725333 32.725333 0 0 1-26.026667-13.226667 31.829333 31.829333 0 0 1-4.266667-29.013333l32.384-97.706667a31.616 31.616 0 0 1 30.336-21.76h130.56a32.213333 32.213333 0 0 1 32 32 32.213333 32.213333 0 0 1-32 32h-107.52l-11.093333 33.706667h53.333333a97.28 97.28 0 0 1 0 194.56zM375.082667 689.962667v-144.597334l-8.106667 9.386667a32.256 32.256 0 0 1-45.226667 2.56 32.213333 32.213333 0 0 1-2.133333-45.226667l64-71.253333a32.469333 32.469333 0 0 1 35.413333-8.533333 31.914667 31.914667 0 0 1 20.48 29.866666v228.266667a32.213333 32.213333 0 0 1-64.426666-0.426667z" p-id="6401" fill="#2c2c2c"></path><path d="M795.392 307.157333a32 32 0 0 0-6.4 44.672 343.68 343.68 0 0 1 70.4 207.36 347.306667 347.306667 0 1 1-347.306667-346.88 334.549333 334.549333 0 0 1 77.226667 9.386667 11.605333 11.605333 0 0 0 3.84 0c1.28 0 2.133333 0.853333 2.986667 0.853333s2.133333-0.426667 3.413333-0.426666a18.773333 18.773333 0 0 0 4.266667-0.853334 32.341333 32.341333 0 0 0 6.826666-2.56c1.28-0.853333 2.56-1.28 3.84-2.133333 0.426667-0.426667 1.28-0.426667 1.706667-0.853333 1.28-0.853333 1.706667-2.133333 2.56-2.986667a24.746667 24.746667 0 0 0 4.266667-5.12 25.216 25.216 0 0 0 2.56-5.973333c0.426667-1.28 1.28-2.56 1.706666-3.84v-2.133334a16.170667 16.170667 0 0 0 0-6.4 28.16 28.16 0 0 0-0.426666-5.973333 47.829333 47.829333 0 0 0-2.133334-5.546667 26.069333 26.069333 0 0 0-2.986666-5.973333 1.578667 1.578667 0 0 0-0.426667-1.28l-84.48-105.258667a31.914667 31.914667 0 0 0-44.8-5.12 32.298667 32.298667 0 0 0-5.12 44.8l34.986667 43.52c-3.413333 0-6.826667-0.426667-10.24-0.426666a411.306667 411.306667 0 1 0 411.306666 411.306666 405.333333 405.333333 0 0 0-82.773333-245.888 32 32 0 0 0-44.8-6.272z" p-id="6402" fill="#2c2c2c"></path></svg>